<svg xmlns="http://www.w3.org/2000/svg" viewBox="0 0 21.35 13.76"><defs><style>.cls-1{fill:#fff;}</style></defs><g id="Layer_2" data-name="Layer 2"><g id="INDEX"><g id="Footer"><path class="cls-1" d="M.71,1.29,9.6,6.07a2.35,2.35,0,0,0,1.08.23,2.31,2.31,0,0,0,1.07-.23l8.9-4.78C21.23,1,21.77,0,20.71,0H.64C-.42,0,.12,1,.71,1.29ZM20.89,3.66,11.75,8.44a2,2,0,0,1-1.07.24A2,2,0,0,1,9.6,8.44L.46,3.66C0,3.42,0,3.7,0,3.92v8.7a1.38,1.38,0,0,0,1.18,1.14h19a1.38,1.38,0,0,0,1.17-1.14V3.92C21.35,3.7,21.36,3.42,20.89,3.66Z"/></g></g></g></svg>