<svg xmlns="http://www.w3.org/2000/svg" viewBox="0 0 29.73 29.73"><defs><style>.cls-1{fill:#929292;}.cls-2{fill:#fff;}</style></defs><g id="Layer_2" data-name="Layer 2"><g id="INDEX"><g id="Footer"><g id="Twitter"><circle id="back" class="cls-1" cx="14.87" cy="14.87" r="14.87"/><path id="Twitter-2" data-name="Twitter" class="cls-2" d="M23.19,9.7a6.78,6.78,0,0,1-2,.54,3.37,3.37,0,0,0,1.5-1.89,6.79,6.79,0,0,1-2.17.83,3.42,3.42,0,0,0-5.91,2.34,3.33,3.33,0,0,0,.09.78,9.76,9.76,0,0,1-7-3.57,3.42,3.42,0,0,0,1.06,4.56,3.39,3.39,0,0,1-1.55-.43v0A3.41,3.41,0,0,0,10,16.25a3.44,3.44,0,0,1-1.54.06,3.39,3.39,0,0,0,3.19,2.37,6.83,6.83,0,0,1-4.24,1.47,7.37,7.37,0,0,1-.82,0,9.72,9.72,0,0,0,15-8.19c0-.14,0-.29,0-.44A6.82,6.82,0,0,0,23.19,9.7Z"/></g></g></g></g></svg>